<?xml version="1.0" standalone="no"?>
<!DOCTYPE svg PUBLIC "-//W3C//DTD SVG 20010904//EN"
 "http://www.w3.org/TR/2001/REC-SVG-20010904/DTD/svg10.dtd">
<svg version="1.0" xmlns="http://www.w3.org/2000/svg"
 width="500.000000pt" height="500.000000pt" viewBox="0 0 500.000000 500.000000"
 preserveAspectRatio="xMidYMid meet">
<metadata>
Created by potrace 1.11, written by Peter Selinger 2001-2013
</metadata>
<g transform="translate(0.000000,500.000000) scale(0.100000,-0.100000)"
fill="#000000" stroke="none">
<path d="M2295 4850 c-181 -29 -324 -74 -477 -151 -58 -29 -227 -134 -238
-148 -3 -3 -27 -24 -55 -46 -67 -53 -203 -192 -257 -263 -23 -31 -51 -66 -60
-76 -10 -11 -20 -28 -24 -38 -3 -10 -10 -18 -15 -18 -5 0 -9 -5 -9 -10 0 -6
-18 -39 -39 -73 -56 -88 -159 -311 -153 -329 1 -5 -2 -8 -8 -8 -6 0 -9 -3 -9
-7 4 -19 -15 -73 -24 -73 -6 0 -8 -3 -5 -6 3 -3 -1 -29 -8 -57 -62 -223 -83
-378 -83 -612 0 -71 2 -146 4 -165 4 -37 11 -88 20 -157 4 -24 6 -45 6 -48 0
-2 13 -53 29 -112 15 -60 25 -112 22 -117 -3 -5 0 -6 6 -2 8 5 12 -1 12 -18 0
-14 5 -28 11 -31 6 -4 8 -13 5 -20 -2 -7 2 -22 10 -34 8 -12 12 -26 9 -31 -3
-6 -1 -10 4 -10 6 0 11 -5 11 -10 0 -6 9 -30 21 -55 11 -24 17 -49 13 -56 -4
-7 -3 -9 4 -5 13 8 44 -52 35 -67 -3 -6 -1 -7 5 -3 7 4 12 2 12 -4 0 -7 9 -24
20 -40 11 -15 17 -30 13 -34 -3 -3 -2 -6 3 -6 15 0 46 -59 38 -72 -4 -7 -3 -8
4 -4 13 8 35 -28 24 -39 -4 -5 -1 -5 6 -1 6 4 12 3 12 -2 0 -4 9 -18 20 -30
12 -12 18 -22 15 -22 -3 0 5 -12 19 -27 14 -15 22 -31 19 -36 -3 -6 -1 -7 5
-3 7 4 12 3 12 -2 0 -4 16 -26 35 -47 19 -22 32 -41 30 -43 -2 -3 6 -13 18
-23 12 -10 19 -18 15 -19 -4 0 3 -12 16 -26 66 -73 98 -121 83 -121 -7 -1 -34
-4 -62 -7 -248 -29 -560 -26 -725 7 -14 3 -43 8 -65 12 -215 38 -376 145 -352
235 3 10 0 21 -7 24 -7 3 -7 5 2 5 7 1 10 6 7 11 -3 6 -1 10 5 10 6 0 8 4 5
10 -3 5 3 26 14 47 30 58 107 163 115 156 3 -3 6 0 6 7 0 20 169 182 182 174
6 -4 9 -3 6 2 -3 5 8 21 23 36 16 15 29 24 29 21 0 -3 9 4 20 17 11 13 20 27
20 32 0 5 4 7 9 4 14 -9 -6 65 -22 82 -16 15 -68 24 -85 13 -52 -33 -352 -321
-335 -321 5 0 3 -4 -3 -8 -16 -10 -77 -101 -96 -142 -30 -64 -40 -94 -44 -134
-2 -22 -6 -42 -9 -44 -2 -2 0 -15 5 -27 6 -16 5 -25 -3 -29 -9 -3 -9 -5 1 -5
6 -1 12 -12 12 -26 0 -14 5 -25 11 -25 5 0 7 -4 4 -10 -3 -5 -1 -10 5 -10 6 0
9 -4 6 -8 -3 -5 4 -18 14 -30 11 -12 20 -27 20 -33 0 -7 3 -9 7 -6 3 4 14 -4
23 -19 10 -14 21 -26 26 -27 5 -1 8 -5 7 -9 -2 -5 0 -7 5 -7 21 4 40 -3 60
-21 12 -12 22 -18 22 -14 0 3 7 1 15 -6 8 -7 15 -9 15 -4 0 4 5 3 12 -4 7 -7
20 -12 30 -12 10 0 18 -5 18 -10 0 -6 6 -10 13 -9 27 3 38 -1 31 -13 -5 -9 -2
-9 9 1 13 11 17 11 17 1 0 -8 3 -10 7 -7 3 4 13 1 21 -6 11 -8 13 -8 9 0 -5 7
0 9 13 6 11 -3 18 -8 16 -12 -2 -3 10 -6 27 -7 49 -1 81 -8 89 -19 5 -6 8 -5
8 3 0 8 5 10 13 5 6 -4 15 -8 20 -9 4 -1 8 -2 10 -3 1 -2 28 -3 60 -4 31 0 57
-4 57 -9 0 -11 23 -6 32 7 5 6 8 5 8 -2 0 -7 10 -13 23 -13 12 0 29 0 37 0 61
-2 260 9 269 14 6 4 11 3 11 -2 0 -5 7 -9 15 -9 8 0 12 4 9 9 -7 11 3 10 28
-3 15 -8 19 -8 14 0 -5 8 13 11 58 11 36 0 69 0 72 -1 4 0 11 5 15 13 6 8 9 9
9 2 0 -7 11 -11 25 -10 14 0 25 4 25 7 0 3 18 5 40 5 22 -1 40 2 40 7 0 4 13
-4 29 -20 16 -15 27 -30 25 -32 -1 -2 7 -13 19 -26 12 -12 29 -32 37 -45 8
-12 20 -28 27 -35 7 -7 9 -15 6 -19 -4 -3 1 -6 10 -6 10 0 17 -4 17 -10 0 -9
19 -36 48 -66 7 -8 10 -14 5 -14 -4 0 0 -5 10 -11 9 -5 17 -15 17 -22 0 -7 9
-18 20 -25 11 -7 20 -17 20 -23 0 -6 6 -16 13 -24 20 -21 40 -48 67 -88 14
-20 28 -37 33 -37 4 0 7 -5 7 -10 0 -6 13 -24 30 -42 29 -30 35 -42 30 -63 -1
-5 1 -7 5 -3 8 8 35 -15 35 -30 0 -6 3 -12 8 -14 11 -5 85 -98 78 -98 -4 0 3
-11 16 -24 40 -41 57 -64 51 -70 -4 -3 1 -6 11 -6 9 0 14 -4 11 -10 -3 -5 -1
-10 5 -10 6 0 8 -4 5 -10 -3 -5 1 -10 10 -10 9 0 15 -5 13 -12 -2 -6 8 -24 24
-38 15 -15 28 -30 28 -34 0 -4 7 -14 15 -23 8 -8 12 -19 9 -25 -4 -6 -3 -8 3
-5 5 3 17 -3 26 -14 9 -10 14 -19 10 -19 -4 0 2 -7 15 -15 25 -18 82 -28 82
-14 0 5 7 9 15 9 8 0 15 6 15 14 0 8 7 17 16 20 8 3 12 10 9 16 -6 9 7 14 27
11 4 0 5 5 2 12 -2 7 9 28 25 47 40 46 43 50 64 83 10 15 23 25 29 21 6 -4 8
-3 5 4 -9 14 3 43 14 36 5 -3 9 1 9 9 0 8 7 18 16 21 9 4 14 9 11 12 -3 3 2
14 11 23 9 10 26 31 37 46 11 16 26 34 33 41 6 7 12 17 12 23 0 6 7 11 16 11
8 0 13 4 9 10 -3 5 3 18 15 30 11 11 20 22 20 25 0 5 12 20 54 67 11 13 23 28
26 33 3 6 9 9 13 7 5 -1 6 2 3 7 -4 5 0 15 7 23 7 7 26 31 42 53 29 39 36 48
63 79 6 8 12 19 12 23 0 4 15 24 33 43 18 19 36 43 40 53 4 10 11 15 17 12 5
-3 10 1 10 9 0 15 16 39 53 78 9 10 17 22 17 28 0 5 6 13 13 17 6 4 18 20 26
35 8 16 16 26 19 23 3 -2 13 10 23 28 9 17 22 31 29 29 6 -1 9 2 5 8 -8 13 20
42 30 32 5 -4 5 -1 1 5 -4 8 3 23 18 38 14 14 22 25 19 25 -3 0 4 9 17 20 13
11 19 20 15 20 -5 0 0 9 11 20 29 29 49 54 49 60 0 4 8 14 18 24 9 10 17 20
17 24 0 4 14 22 31 40 16 17 27 32 23 32 -4 0 1 9 11 20 10 11 22 17 28 13 6
-3 7 -1 3 5 -4 7 5 24 21 39 15 16 26 30 25 33 -1 3 4 12 12 22 8 9 11 20 8
24 -4 4 1 4 11 1 10 -4 16 -3 12 2 -8 14 6 42 18 34 5 -3 7 -1 4 4 -4 6 2 22
13 36 11 14 20 33 20 43 0 9 3 14 7 11 3 -4 17 18 31 48 14 30 29 52 33 49 5
-3 9 0 9 7 0 7 3 10 6 6 4 -3 13 1 21 9 8 8 19 11 25 8 6 -4 8 -3 5 3 -3 5 15
20 41 34 26 13 51 30 55 37 5 7 12 10 18 7 5 -4 9 -1 9 5 0 6 5 8 10 5 6 -3
13 1 16 10 4 9 13 14 21 11 9 -4 11 -2 7 6 -5 8 -2 9 10 5 10 -4 15 -3 11 3
-7 11 24 28 47 25 11 -2 15 2 11 11 -8 22 7 17 32 -10 13 -14 26 -22 29 -19 3
3 8 -2 12 -11 3 -9 10 -14 14 -11 5 3 15 -2 23 -10 9 -8 25 -15 37 -15 14 0
19 -4 14 -12 -5 -8 -2 -9 9 -5 10 4 17 1 17 -6 0 -8 3 -8 9 2 5 8 11 9 15 3 3
-6 16 -8 29 -5 18 4 19 3 7 -6 -8 -6 -10 -11 -4 -11 6 0 14 3 18 7 6 7 17 8
84 14 17 2 32 7 32 11 0 4 7 8 15 8 50 0 152 84 190 158 11 20 24 40 28 43 5
3 8 8 6 10 -1 2 1 22 6 44 15 77 7 151 -26 224 -21 48 -24 71 -9 71 5 0 7 7 4
15 -4 8 -1 15 5 15 6 0 8 7 5 15 -4 8 -2 15 2 15 5 0 10 34 12 75 6 136 -38
245 -138 345 -65 64 -175 123 -238 126 -36 2 -45 -1 -59 -23 -22 -33 -28 -73
-12 -73 7 0 10 -3 6 -6 -9 -10 25 -43 39 -37 8 3 14 0 14 -6 0 -6 7 -8 17 -4
11 4 14 3 9 -5 -5 -8 -2 -10 8 -6 9 3 16 1 16 -5 0 -6 9 -11 20 -11 12 0 20
-7 20 -17 0 -15 2 -16 10 -3 8 13 10 12 10 -2 0 -10 5 -18 10 -18 6 0 22 -11
36 -25 14 -14 22 -25 19 -25 -4 0 1 -7 9 -16 9 -8 14 -20 10 -25 -3 -5 0 -8 7
-7 7 2 14 -1 14 -7 1 -5 5 -17 9 -26 4 -9 8 -33 9 -53 1 -20 5 -36 9 -36 4 0
3 -14 -2 -30 -9 -30 -10 -36 -10 -44 0 -3 -21 5 -47 17 -38 17 -68 21 -138 22
-82 0 -96 -3 -157 -33 -74 -36 -124 -87 -166 -167 -22 -41 -27 -65 -29 -139
-1 -49 2 -96 6 -104 9 -16 -15 -52 -34 -52 -6 0 -34 -16 -62 -35 -29 -19 -55
-35 -58 -35 -7 0 2 40 26 110 10 30 21 71 23 90 3 19 10 53 15 75 5 22 13 67
17 100 3 33 11 63 18 67 7 5 7 8 1 8 -11 0 -13 38 -4 56 5 8 4 329 -1 329 -1
0 -3 16 -5 35 -4 47 -13 119 -20 150 -2 13 -7 41 -10 61 -3 20 -10 51 -15 69
-5 18 -7 37 -4 41 3 5 0 9 -6 9 -7 0 -10 6 -7 13 2 6 -2 27 -10 45 -7 17 -11
32 -8 32 3 0 1 9 -5 21 -6 11 -13 28 -15 37 -9 39 -59 161 -95 234 -21 43 -35
78 -32 78 4 0 2 4 -4 8 -6 4 -21 27 -35 52 -13 25 -26 47 -29 50 -11 11 -50
70 -50 75 0 6 -92 128 -117 155 -267 292 -478 426 -828 530 -16 4 -50 12 -75
15 -25 4 -54 10 -65 12 -36 9 -339 11 -390 3z m175 -180 c17 11 32 3 24 -13
-3 -7 0 -5 8 3 13 16 44 15 65 -2 7 -6 14 -5 19 3 5 8 3 9 -6 4 -9 -5 -11 -4
-6 3 5 9 13 9 29 0 30 -16 47 -18 47 -6 0 6 8 4 18 -5 14 -13 21 -14 30 -5 9
9 12 9 12 1 0 -7 9 -10 20 -8 11 2 20 -1 20 -6 0 -6 4 -8 10 -4 5 3 25 -1 45
-9 20 -9 33 -11 30 -7 -3 5 4 7 15 4 11 -3 17 -10 13 -16 -4 -6 -1 -7 6 -2 12
7 30 1 83 -26 10 -5 27 -9 38 -9 11 0 20 -4 20 -9 0 -5 10 -11 23 -13 12 -2
21 -9 19 -16 -1 -8 1 -11 6 -8 12 7 112 -43 119 -60 3 -8 9 -12 13 -9 5 3 19
-5 32 -18 13 -13 29 -22 36 -19 7 2 12 -4 12 -14 0 -9 3 -14 6 -11 4 4 15 -3
25 -15 11 -11 19 -18 19 -15 0 4 17 -9 37 -28 20 -19 41 -35 45 -35 4 0 8 -7
8 -15 0 -8 6 -15 14 -15 8 0 23 -13 33 -30 9 -16 24 -30 32 -30 8 0 12 -3 8
-6 -5 -6 10 -25 66 -81 12 -13 18 -23 14 -23 -4 0 2 -11 15 -25 36 -38 49 -55
43 -55 -3 0 3 -10 15 -22 11 -12 20 -26 20 -31 0 -4 7 -15 15 -24 8 -8 13 -18
10 -23 -3 -4 2 -11 11 -14 8 -3 13 -10 10 -15 -4 -5 -1 -11 4 -13 6 -2 12 -13
13 -25 0 -12 3 -20 6 -17 6 6 71 -132 71 -151 0 -7 4 -15 10 -17 5 -1 11 -12
13 -23 2 -11 9 -31 17 -45 7 -14 13 -27 12 -30 -2 -10 11 -56 21 -67 5 -7 7
-13 3 -13 -3 0 -1 -11 4 -26 13 -33 23 -83 24 -116 1 -14 4 -24 9 -21 4 2 7
-7 7 -21 0 -33 1 -36 11 -63 6 -16 5 -23 -4 -23 -9 0 -9 -2 0 -8 7 -4 12 -16
12 -27 1 -32 9 -170 11 -170 1 0 3 -21 4 -47 1 -29 -2 -48 -8 -48 -8 0 -8 -3
0 -8 6 -4 9 -18 8 -32 -1 -14 -5 -52 -8 -85 -12 -128 -26 -207 -37 -221 -5 -6
-6 -13 -3 -16 3 -3 0 -26 -6 -49 -7 -24 -12 -45 -11 -46 2 -7 -74 -213 -96
-263 -22 -48 -36 -63 -82 -91 -31 -19 -60 -36 -66 -38 -5 -2 -22 -12 -36 -22
-14 -10 -29 -16 -33 -12 -3 3 -6 1 -6 -5 0 -7 -7 -12 -15 -12 -8 0 -15 -5 -15
-12 0 -6 -3 -9 -6 -5 -3 3 -29 -9 -57 -26 -28 -17 -56 -32 -62 -33 -5 -1 -34
-16 -64 -33 -29 -17 -58 -33 -64 -34 -6 -1 -18 -8 -25 -15 -8 -7 -17 -10 -22
-7 -5 3 -11 1 -15 -5 -13 -21 -438 -210 -453 -201 -1 1 -15 -5 -30 -13 -15 -7
-70 -25 -122 -40 -52 -15 -111 -31 -130 -37 -19 -6 -44 -12 -55 -14 -11 -2
-20 -4 -20 -5 0 -1 -9 -3 -20 -5 -31 -4 -77 -14 -110 -23 -16 -4 -37 -8 -45
-7 -8 1 -20 -2 -25 -6 -6 -4 -33 -10 -60 -13 -28 -3 -86 -13 -130 -21 -44 -9
-98 -18 -120 -20 -22 -3 -51 -7 -65 -10 -14 -3 -54 -8 -90 -11 l-65 -6 -105
138 c-57 77 -110 145 -117 152 -7 7 -13 16 -13 20 0 4 -13 21 -28 37 -36 39
-139 184 -185 261 -59 99 -161 328 -160 363 0 9 -3 18 -8 21 -4 3 -10 19 -13
35 -3 17 -10 48 -15 69 -5 22 -8 43 -5 47 2 4 0 9 -5 11 -5 1 -11 26 -15 53
-3 28 -10 67 -15 88 -6 23 -5 37 1 37 5 0 6 6 1 13 -4 6 -9 29 -10 50 -1 21
-4 45 -7 53 -3 8 0 14 7 14 8 0 8 3 1 8 -12 8 -13 51 -1 69 4 6 3 14 -2 18 -5
3 -8 15 -5 28 2 12 7 54 9 92 7 100 15 151 47 297 12 58 25 95 31 91 6 -3 7
-1 3 6 -4 7 -4 20 0 29 9 21 9 21 19 57 4 17 12 36 18 43 5 6 6 12 2 12 -4 0
-3 6 2 13 5 6 20 38 33 70 12 31 27 57 33 57 6 0 7 3 4 7 -9 8 79 174 101 191
9 7 16 16 16 20 -3 16 9 31 19 25 6 -4 7 -1 3 6 -5 7 -1 20 8 29 47 52 55 62
49 62 -5 0 1 7 12 16 11 8 20 18 20 23 0 4 14 20 30 35 17 15 28 30 25 32 -3
2 10 14 27 27 18 13 30 27 26 30 -6 7 12 11 30 8 5 -1 6 3 2 9 -3 5 -1 10 5
10 6 0 9 4 6 8 -3 5 6 15 19 22 14 7 25 17 25 22 0 5 5 6 10 3 6 -3 10 1 10 9
0 9 4 15 9 14 5 -2 23 9 40 25 17 15 31 24 31 20 0 -5 5 0 11 10 6 9 14 15 19
12 4 -3 10 2 14 10 3 8 12 15 21 15 8 0 15 6 15 13 0 8 4 7 10 -3 8 -13 10
-12 10 3 0 15 11 22 33 18 4 0 7 4 7 10 0 5 4 8 9 4 6 -3 14 3 20 12 6 10 11
15 11 11 0 -4 20 4 45 18 25 14 50 22 55 19 6 -3 10 -1 10 6 0 6 8 9 20 6 11
-3 18 -1 14 4 -5 8 9 13 29 10 4 0 7 5 7 12 0 8 4 7 10 -3 8 -12 10 -12 10 -1
0 8 7 11 20 8 11 -3 18 -1 14 4 -3 5 4 10 15 10 33 2 39 4 47 11 4 4 13 3 21
-3 10 -9 13 -8 13 1 0 8 12 11 34 8 19 -2 33 -1 30 3 -2 4 3 9 11 13 8 3 15 1
15 -5 0 -6 6 -7 13 -2 22 14 49 14 41 1 -6 -9 -3 -9 9 1 9 7 24 11 32 7 8 -3
15 0 15 6 0 7 4 7 13 0 8 -7 18 -7 27 -2z m2059 -2021 c16 10 53 2 45 -10 -3
-5 1 -7 8 -4 7 3 29 -8 48 -25 19 -16 31 -30 26 -30 -4 0 -2 -10 6 -22 35 -55
-2 -157 -70 -192 -38 -20 -116 -15 -149 10 -50 37 -68 71 -68 126 0 30 5 53
12 55 7 3 10 10 7 17 -5 14 60 69 70 59 3 -4 6 -1 6 6 0 7 5 9 10 6 6 -3 10
-1 10 6 0 8 4 8 13 1 7 -6 18 -7 26 -3z m-936 -793 c-4 -8 -22 -32 -40 -53
-17 -21 -60 -76 -95 -123 -34 -47 -65 -87 -68 -90 -3 -3 -30 -39 -60 -80 -30
-41 -57 -77 -60 -80 -3 -3 -59 -77 -125 -165 -66 -88 -123 -162 -126 -165 -3
-3 -23 -30 -44 -60 -21 -30 -41 -57 -44 -60 -4 -3 -82 -106 -176 -230 -93
-124 -172 -227 -175 -230 -4 -3 -21 -25 -38 -50 -54 -77 -62 -86 -70 -74 -4 6
-19 26 -34 45 -15 19 -54 70 -87 114 -33 44 -64 85 -68 90 -4 6 -28 37 -53 70
-25 33 -47 62 -50 65 -3 3 -66 86 -140 185 -74 99 -139 185 -145 192 -5 6 -21
26 -35 44 -14 18 -31 38 -38 46 -11 11 -11 15 0 26 7 7 20 12 28 12 8 -1 29 2
47 6 19 4 36 2 44 -5 9 -8 10 -8 5 2 -4 6 -4 12 1 12 45 2 121 14 131 22 8 7
12 7 12 -1 0 -7 5 -9 13 -4 15 9 33 13 75 15 17 1 32 5 32 9 0 4 11 6 25 4 14
-1 25 2 25 6 0 5 5 9 11 9 5 0 7 -6 3 -12 -5 -8 -1 -8 10 1 17 15 45 21 103
24 17 1 29 6 26 11 -4 5 3 7 15 4 12 -4 22 -2 22 4 0 6 7 8 15 4 8 -3 15 0 15
7 0 8 4 6 10 -3 6 -10 10 -11 10 -3 0 7 3 12 8 12 4 -1 9 0 12 1 13 4 47 12
63 13 9 1 17 5 17 10 0 5 8 3 17 -4 11 -10 14 -10 9 -1 -7 11 -3 13 37 16 6 1
19 7 27 15 10 9 15 10 18 2 2 -6 9 -11 15 -11 5 0 7 3 4 7 -12 11 37 31 51 20
8 -7 12 -4 12 8 0 15 2 16 17 4 9 -8 14 -9 10 -3 -4 7 0 14 7 17 8 3 17 1 20
-6 2 -7 5 -3 5 7 1 11 4 17 7 13 3 -3 25 2 47 12 23 10 48 16 56 13 8 -3 11 0
7 7 -7 11 1 14 36 14 10 0 15 3 13 7 -6 10 24 22 36 14 5 -3 9 -1 9 5 0 9 17
17 45 23 6 1 16 8 23 15 8 7 18 11 23 8 5 -4 9 -1 9 6 0 6 8 9 20 6 11 -3 23
0 27 5 3 7 1 8 -5 4 -7 -4 -12 -5 -12 -2 0 10 72 36 83 29 5 -3 7 -1 3 5 -5 9
32 29 43 23 2 -2 8 5 13 14 8 13 13 14 24 4 12 -10 13 -9 8 6 -5 13 -4 16 4
11 7 -4 12 -2 12 5 0 7 3 9 7 6 3 -4 15 0 25 10 10 9 18 13 18 9 0 -4 7 0 16
8 8 9 20 14 25 11 5 -4 9 -1 9 5 0 6 4 9 9 6 5 -3 11 1 15 9 3 8 15 15 26 15
11 0 20 3 20 8 0 6 23 20 48 31 2 0 -1 -5 -5 -13z"/>
<path d="M2364 4401 c-2 -2 -21 -6 -41 -8 -50 -5 -88 -11 -88 -13 0 -1 -7 -3
-15 -5 -56 -11 -87 -17 -102 -18 -10 -1 -18 -5 -18 -9 0 -4 -8 -8 -18 -8 -9 0
-34 -9 -55 -20 -20 -11 -37 -18 -37 -15 0 18 -251 -132 -322 -192 -71 -60
-188 -187 -236 -256 -52 -75 -137 -227 -127 -227 3 0 -2 -11 -11 -24 -8 -14
-16 -29 -16 -33 0 -4 -5 -19 -10 -33 -5 -14 -11 -33 -13 -43 -2 -9 -6 -21 -9
-25 -5 -8 -11 -34 -21 -87 -2 -11 -6 -31 -9 -45 -3 -14 -7 -38 -8 -55 -1 -16
-5 -35 -10 -42 -5 -6 -5 -14 2 -18 6 -3 7 -11 4 -17 -11 -17 -12 -151 -2 -170
6 -12 5 -18 -2 -18 -7 0 -8 -6 -2 -17 5 -10 8 -28 7 -41 -1 -13 1 -25 5 -27 4
-3 6 -18 5 -35 -1 -16 1 -30 5 -30 4 0 7 -16 8 -35 1 -19 8 -47 15 -62 8 -16
14 -40 13 -55 -1 -14 3 -24 8 -21 5 4 6 -1 2 -13 -4 -10 -4 -15 0 -11 11 11
34 -50 27 -70 -4 -10 -2 -14 4 -10 7 4 18 -11 28 -38 10 -25 24 -50 31 -56 8
-6 11 -15 8 -20 -3 -5 0 -9 7 -9 7 0 10 -3 6 -6 -3 -3 3 -15 14 -27 10 -11 19
-27 19 -34 0 -7 5 -13 11 -13 5 0 8 -4 5 -9 -3 -5 1 -11 9 -15 8 -3 15 -12 15
-21 0 -8 7 -15 15 -15 8 0 17 -11 21 -25 3 -14 10 -22 15 -19 8 5 13 -9 10
-29 0 -4 5 -6 11 -5 7 2 12 -3 10 -9 -1 -7 3 -13 8 -13 14 0 76 -60 72 -71 -1
-5 2 -10 8 -10 5 -1 16 -2 23 -3 6 -1 11 -7 10 -13 -1 -6 11 -16 28 -23 16 -7
34 -22 40 -32 6 -11 13 -17 16 -14 3 2 17 -6 31 -19 14 -13 29 -22 34 -19 4 3
8 1 8 -4 0 -5 9 -12 21 -15 12 -3 18 -10 14 -16 -3 -7 0 -8 9 -5 9 3 16 1 16
-6 0 -6 4 -9 9 -5 5 3 16 -2 25 -10 8 -9 18 -16 21 -15 21 1 25 -2 19 -12 -4
-7 -4 -10 1 -6 4 4 15 2 23 -5 13 -9 14 -9 8 0 -5 9 -2 11 8 7 9 -3 16 -10 16
-16 0 -5 4 -7 8 -4 5 3 20 -1 35 -9 14 -7 28 -11 31 -8 3 3 12 1 19 -5 8 -7
17 -9 20 -5 4 3 7 2 7 -3 0 -5 10 -11 22 -11 13 -1 24 -7 26 -13 3 -8 8 -7 18
1 11 9 14 8 14 -1 0 -8 3 -10 7 -7 3 4 13 1 21 -6 13 -10 14 -9 7 3 -7 11 -2
10 19 -4 16 -10 25 -13 21 -6 -5 8 -2 10 11 7 22 -7 84 -17 132 -22 17 -2 32
1 32 7 0 5 5 6 11 2 19 -12 109 -11 109 0 0 6 5 4 10 -4 5 -8 10 -10 10 -5 0
6 12 11 28 12 15 0 34 2 42 4 9 3 14 -2 12 -10 -3 -12 -1 -12 13 -1 16 13 34
20 63 22 6 1 12 6 12 12 0 6 5 4 11 -4 8 -11 12 -12 16 -2 2 6 12 12 22 12 9
0 23 6 30 13 11 10 12 9 6 -3 -8 -13 -7 -13 8 -1 9 7 17 10 17 6 0 -5 9 0 20
10 11 10 20 13 20 7 0 -7 5 -12 11 -12 5 0 7 5 4 10 -3 6 -1 10 5 10 6 0 29 9
51 19 21 11 36 14 33 8 -3 -7 2 -3 10 7 9 11 16 16 16 11 0 -4 8 -2 18 6 9 8
43 28 74 44 32 17 58 33 58 38 0 4 6 7 13 7 7 0 21 9 30 21 10 11 25 18 32 15
8 -3 14 -2 12 2 -3 10 61 72 73 72 6 0 10 5 10 11 0 5 5 7 12 3 6 -4 8 -3 5 3
-3 5 14 28 38 51 25 23 42 42 40 42 -3 0 0 6 7 14 7 8 16 12 21 9 4 -2 7 -1 6
4 -3 20 2 34 11 28 6 -3 10 1 10 10 0 9 4 14 8 11 5 -3 9 0 9 7 0 20 34 67 44
61 5 -3 6 2 3 11 -4 10 2 24 15 36 11 11 21 26 21 34 0 8 5 15 11 15 5 0 7 5
4 10 -3 6 -1 10 4 10 6 0 10 3 10 8 -3 15 23 72 34 72 6 0 8 3 5 6 -3 3 5 34
17 69 13 35 21 66 17 69 -3 3 -1 6 4 6 5 0 11 8 12 18 2 21 10 57 12 57 2 0 7
32 14 77 2 15 7 32 12 39 5 8 3 10 -7 4 -11 -7 -12 -6 -3 6 13 16 14 307 1
327 -5 6 -6 12 -3 12 3 0 1 11 -4 25 -7 18 -6 25 3 25 8 0 7 4 -3 10 -8 5 -11
12 -7 16 4 4 0 18 -8 31 -9 13 -11 23 -6 23 6 0 1 21 -10 47 -11 25 -18 52
-15 60 3 7 1 13 -4 13 -6 0 -10 4 -10 9 0 5 -8 26 -17 47 -9 22 -17 41 -18 44
-3 16 -59 116 -66 118 -5 2 -9 10 -9 17 0 8 -7 20 -15 28 -8 8 -16 20 -17 27
-2 7 -12 22 -23 34 -11 12 -31 37 -45 55 -29 39 -143 154 -191 191 -17 14 -37
31 -45 38 -7 6 -17 12 -21 12 -5 0 -18 8 -29 18 -46 40 -261 146 -299 147 -5
0 -14 3 -20 6 -18 10 -130 40 -170 45 -11 2 -45 5 -75 8 -30 2 -56 5 -57 7 -6
4 -205 4 -209 0z m29 -224 c18 4 19 3 7 -6 -8 -6 -10 -11 -4 -11 14 0 14 -172
-1 -182 -7 -5 -6 -8 2 -8 6 0 11 -9 10 -20 -1 -22 -26 -27 -45 -8 -7 7 -12 8
-12 4 0 -7 -51 29 -72 52 -42 43 -58 63 -58 76 0 8 -5 16 -11 18 -5 2 -11 10
-12 18 -2 8 -6 20 -9 26 -4 6 -2 11 5 12 60 4 90 11 97 22 5 9 9 9 14 1 4 -6
12 -11 17 -11 6 0 7 5 3 12 -5 8 -2 9 9 5 9 -3 20 -1 24 5 5 9 8 9 10 1 2 -6
14 -9 26 -6z m223 2 c4 -7 9 -8 17 0 6 6 16 7 28 0 10 -5 31 -11 46 -12 15 -2
35 -6 43 -10 8 -3 23 -7 33 -9 10 -2 17 -7 15 -13 -2 -5 -6 -9 -10 -8 -4 2 -5
-4 -2 -11 8 -20 -88 -146 -111 -146 -3 0 -17 -8 -32 -17 -32 -21 -50 -24 -56
-10 -3 10 -2 219 2 240 2 11 19 9 27 -4z m-604 -126 c6 -16 11 -31 10 -35 -1
-5 3 -8 9 -8 5 0 7 -4 4 -10 -3 -5 -2 -10 4 -10 10 0 27 -38 23 -52 -1 -5 1
-7 6 -6 17 3 40 -15 35 -28 -3 -8 1 -14 10 -14 9 0 18 -8 21 -18 3 -9 16 -22
28 -27 13 -6 22 -16 21 -23 -2 -6 4 -9 12 -6 8 4 15 1 15 -6 0 -6 5 -8 10 -5
6 3 10 1 10 -4 0 -6 7 -11 16 -11 9 0 12 -5 8 -12 -4 -6 -3 -8 3 -5 5 3 22 0
37 -8 15 -8 30 -14 34 -14 4 1 10 0 15 -1 4 -1 12 -4 17 -5 6 -1 12 -4 15 -5
3 -1 11 -3 18 -4 9 -1 12 -38 13 -148 l1 -147 -42 -21 c-72 -35 -158 -116
-185 -175 l-18 -40 -136 1 c-75 0 -139 4 -143 8 -4 3 -8 14 -9 22 -4 23 -46
127 -59 142 -5 7 -16 19 -23 27 -7 8 -10 15 -5 15 17 0 -135 136 -174 155 -43
21 -68 49 -58 66 4 5 10 7 15 4 4 -3 6 4 3 15 -3 11 0 20 6 20 6 0 11 7 11 15
0 8 4 15 9 15 5 0 13 10 17 23 4 12 17 32 30 44 13 12 24 26 24 31 0 5 19 26
43 48 23 21 44 44 45 49 1 6 5 10 10 10 4 0 21 12 37 28 17 15 36 25 42 22 7
-2 12 -1 12 3 -3 20 2 33 11 27 6 -3 10 -1 10 5 0 6 4 9 8 6 5 -3 14 3 22 14
7 10 19 16 26 13 7 -2 18 4 25 16 10 15 16 17 26 9 10 -8 12 -7 7 6 -11 28 6
17 18 -11z m1008 6 c0 -3 15 -14 33 -22 33 -16 66 -39 98 -69 11 -10 19 -15
19 -11 0 4 20 -14 45 -39 24 -25 47 -43 50 -40 3 3 5 -2 5 -11 0 -9 7 -17 16
-17 10 0 14 -5 10 -16 -3 -8 -2 -13 2 -11 4 2 17 -7 29 -20 12 -13 20 -23 16
-23 -3 0 0 -6 6 -13 6 -8 7 -17 3 -21 -4 -4 -1 -6 7 -4 7 1 22 -13 33 -32 11
-19 24 -36 29 -38 5 -2 9 -8 9 -13 0 -6 -6 -7 -12 -4 -7 4 -4 -1 6 -9 11 -9
16 -16 10 -16 -5 0 -2 -4 5 -9 12 -8 9 -12 -15 -22 -97 -43 -205 -143 -256
-237 -23 -44 -47 -104 -49 -127 -2 -26 -24 -30 -148 -29 -158 2 -154 2 -147
13 4 5 2 11 -3 13 -5 1 -11 9 -13 17 -8 36 -93 120 -169 167 l-56 34 0 140 c0
127 2 140 18 145 11 4 24 3 30 -1 8 -4 9 -3 5 4 -5 8 1 13 16 14 13 0 29 2 36
2 8 1 18 9 23 18 5 10 16 15 24 12 8 -4 15 -1 15 6 0 7 7 10 15 6 9 -3 15 0
15 10 0 8 13 20 30 25 16 6 28 16 27 22 -1 7 3 11 10 10 6 -2 15 6 18 17 4 11
13 20 21 20 8 0 13 4 9 9 -3 5 4 16 15 24 11 7 17 17 13 20 -3 4 -1 7 5 7 7 0
12 9 12 21 0 13 4 18 12 13 8 -5 9 -2 5 9 -3 10 -2 17 4 17 5 0 13 11 18 23 8
21 41 34 41 16z m-1530 -646 c0 16 40 -14 41 -31 0 -11 2 -13 6 -4 4 10 11 8
29 -9 13 -12 21 -26 18 -31 -3 -5 -2 -8 3 -7 14 3 43 -13 38 -21 -3 -4 2 -13
10 -20 8 -7 15 -19 15 -26 0 -8 5 -14 11 -14 5 0 7 -4 4 -10 -3 -5 -1 -10 6
-10 8 0 8 -4 1 -12 -7 -9 -46 -13 -129 -13 l-118 1 3 44 c5 84 6 90 12 90 3 0
7 11 8 26 1 14 7 34 13 46 9 17 13 18 20 7 5 -8 9 -10 9 -6z m2035 7 c-3 -5
-1 -10 5 -10 7 0 10 -6 7 -14 -3 -8 -2 -16 3 -18 5 -2 10 -20 12 -41 1 -21 6
-41 11 -44 4 -2 3 -11 -3 -18 -8 -9 -8 -15 0 -20 16 -10 12 -42 -7 -47 -10 -2
-61 -3 -113 -2 -143 3 -131 0 -118 32 7 15 19 33 27 40 8 6 11 12 6 12 -4 0 4
11 18 24 14 13 23 27 19 32 -4 4 1 4 11 1 10 -4 16 -3 13 2 -8 13 21 34 35 25
7 -4 9 -3 6 3 -3 5 3 17 14 26 13 12 19 13 19 4 0 -6 5 -4 11 6 5 9 15 17 20
17 6 0 7 -4 4 -10z m-2047 -414 c6 -4 12 -3 12 2 0 9 84 7 99 -3 4 -2 13 0 21
5 8 5 22 4 33 -2 14 -7 17 -7 13 1 -4 6 -3 11 3 11 5 0 12 -4 15 -8 7 -12 -32
-92 -45 -92 -7 0 -10 -3 -6 -6 6 -6 -44 -61 -51 -56 -2 2 -9 -3 -15 -12 -7 -8
-29 -23 -49 -35 -42 -23 -46 -20 -61 59 -3 14 -6 25 -7 25 -1 0 -3 19 -5 42
-2 23 -6 47 -10 52 -3 6 -1 11 5 11 6 0 9 4 6 8 -6 10 25 9 42 -2z m438 2 c-4
7 -1 12 9 12 9 0 13 -5 9 -11 -4 -8 -1 -8 12 -2 24 11 155 10 173 -2 10 -6 12
-4 6 5 -6 9 -2 10 16 5 26 -9 43 -24 47 -45 2 -8 9 -18 15 -22 7 -4 8 -8 2 -8
-5 0 -2 -5 8 -11 9 -5 17 -17 17 -24 0 -8 7 -15 16 -15 8 0 12 -4 9 -10 -3 -5
0 -10 7 -10 8 0 20 -9 28 -20 8 -11 20 -20 27 -20 7 0 13 -4 13 -10 0 -5 7
-10 16 -10 8 0 13 -4 10 -8 -2 -4 5 -9 16 -9 12 -1 26 -7 31 -12 14 -14 16
-84 3 -93 -7 -5 -7 -8 -1 -8 12 0 12 -70 0 -90 -5 -8 -4 -11 2 -7 14 9 9 -81
-6 -96 -6 -6 -11 -7 -11 -3 0 5 -6 3 -14 -3 -8 -6 -18 -11 -22 -10 -20 5 -134
-49 -134 -63 0 -6 -3 -9 -6 -5 -3 3 -12 0 -20 -6 -36 -30 -94 -88 -94 -92 0
-3 -11 -18 -25 -33 -14 -15 -25 -31 -25 -35 0 -5 -9 -22 -21 -38 -11 -16 -17
-29 -13 -29 5 0 3 -5 -2 -10 -12 -12 -64 6 -64 22 0 4 -6 8 -12 8 -30 0 -194
139 -266 224 -27 32 -92 132 -93 143 0 5 -6 14 -12 22 -19 23 -14 55 6 39 2
-2 11 5 21 15 10 9 23 17 30 17 7 0 25 11 39 24 14 13 28 22 31 19 2 -3 9 5
16 16 6 12 15 19 21 16 5 -4 9 0 9 7 0 8 9 21 20 31 11 9 20 24 20 32 0 9 4
14 9 10 5 -3 12 4 16 15 4 11 11 17 17 14 6 -4 8 -2 5 3 -4 6 3 23 15 39 13
15 17 24 9 20 -11 -7 -11 -4 0 15 8 13 14 29 15 34 1 6 7 25 14 43 10 28 14
31 28 20 12 -10 14 -10 8 0z m959 2 c3 5 11 10 16 10 6 0 7 -5 3 -11 -4 -8 -1
-8 12 -2 11 4 55 8 99 7 119 -3 114 -2 110 -24 -2 -11 0 -18 6 -15 5 4 9 -2 9
-12 0 -10 11 -40 24 -68 14 -27 22 -54 19 -60 -4 -5 -3 -7 2 -3 4 4 21 -11 37
-33 28 -38 119 -135 103 -109 -5 9 -4 11 3 6 7 -4 12 -14 12 -22 0 -8 3 -13 8
-12 15 4 52 -14 46 -23 -3 -5 -2 -9 3 -8 22 4 43 -2 38 -11 -4 -6 1 -7 11 -3
13 5 15 2 9 -18 -4 -13 -14 -31 -21 -40 -8 -9 -11 -19 -7 -22 3 -4 1 -7 -5 -7
-6 0 -13 -8 -17 -19 -3 -10 -13 -28 -23 -39 -9 -12 -28 -36 -42 -53 -36 -47
-120 -129 -155 -150 -16 -11 -26 -19 -20 -19 10 0 -145 -99 -156 -100 -4 0
-13 15 -20 33 -7 17 -20 40 -29 50 -8 10 -13 19 -10 21 3 2 -10 18 -27 35 -18
17 -30 31 -27 31 12 0 -60 61 -111 95 -52 34 -137 68 -167 67 -21 -1 -20 -10
-22 156 -1 72 2 132 7 132 4 0 5 5 2 10 -3 6 3 10 14 10 11 0 30 10 42 23 12
12 19 15 15 7 -4 -8 4 -3 18 13 25 27 43 37 30 15 -5 -7 -3 -8 5 -4 7 5 10 10
8 13 -3 2 15 25 39 50 24 26 40 51 37 56 -4 6 0 8 10 4 11 -4 14 -2 10 9 -8
21 16 47 32 34 9 -8 15 -8 20 0z m523 -4 c7 -4 12 -3 12 2 0 6 20 8 48 5 56
-6 61 -6 88 0 17 4 23 0 27 -19 2 -13 2 -26 -2 -29 -3 -3 -6 -18 -7 -33 -1
-15 -3 -28 -4 -29 -1 -2 -4 -12 -5 -23 -1 -11 -3 -21 -5 -22 -1 -2 -3 -10 -5
-20 -9 -46 -18 -48 -67 -18 -57 36 -96 74 -126 122 -36 58 -36 73 3 72 17 -1
37 -4 43 -8z m-988 -841 c0 -76 -4 -125 -10 -126 -5 -1 -16 -2 -22 -3 -7 -1
-17 0 -23 3 -5 3 -21 7 -35 8 -33 4 -65 10 -65 12 0 2 -11 5 -25 7 -30 6 -50
24 -33 31 7 2 9 11 6 20 -4 11 -2 14 5 9 7 -4 12 -1 12 7 0 8 9 24 20 37 11
13 20 27 20 32 0 5 5 6 10 3 6 -3 10 1 10 9 0 9 7 16 15 16 8 0 15 5 15 11 0
6 7 9 15 5 8 -3 14 -2 14 2 -4 22 4 29 31 27 16 -1 27 2 24 7 -3 4 0 8 5 8 7
0 11 -44 11 -125z m219 113 c11 -11 13 -10 7 2 -4 8 2 4 14 -10 12 -14 19 -19
15 -12 -6 11 -3 11 13 1 12 -7 18 -17 16 -21 -3 -4 1 -8 8 -8 14 0 68 -63 68
-79 0 -6 5 -11 11 -11 6 0 8 -7 5 -16 -3 -8 -2 -12 4 -9 6 3 10 4 10 1 0 -2 3
-11 6 -20 4 -11 -6 -18 -38 -27 -62 -18 -69 -19 -109 -23 -19 -1 -40 -6 -46
-9 -7 -4 -14 -3 -18 2 -5 9 -8 123 -6 214 1 39 16 48 40 25z"/>
</g>
</svg>
